<svg width="32" height="32" viewBox="0 0 32 32" fill="none" xmlns="http://www.w3.org/2000/svg">
<path opacity="0.4" d="M14.3345 28.7332C15.2545 29.5199 16.761 29.5199 17.6944 28.7332L19.8012 26.9199C20.2012 26.5733 20.9477 26.2932 21.481 26.2932H23.7478C25.1612 26.2932 26.321 25.1332 26.321 23.7199V21.4533C26.321 20.9333 26.601 20.1733 26.9477 19.7733L28.7612 17.6665C29.5478 16.7465 29.5478 15.2399 28.7612 14.3065L26.9477 12.2C26.601 11.8 26.321 11.0533 26.321 10.52V8.2532C26.321 6.83987 25.1612 5.68 23.7478 5.68H21.481C20.961 5.68 20.2012 5.39987 19.8012 5.0532L17.6944 3.23987C16.7744 2.4532 15.2678 2.4532 14.3345 3.23987L12.2278 5.0532C11.8278 5.39987 11.0811 5.68 10.5478 5.68H8.24109C6.82776 5.68 5.66777 6.83987 5.66777 8.2532V10.5333C5.66777 11.0533 5.38778 11.8 5.05445 12.2L3.25444 14.3199C2.48111 15.2399 2.48111 16.7332 3.25444 17.6532L5.05445 19.7733C5.38778 20.1733 5.66777 20.9199 5.66777 21.4399V23.7199C5.66777 25.1332 6.82776 26.2932 8.24109 26.2932H10.5478C11.0678 26.2932 11.8278 26.5733 12.2278 26.9199L14.3345 28.7332Z" fill="#EF4444"/>
<path d="M22.1072 17.24C21.8539 17.6 21.4273 17.8 20.9207 17.8H18.3205C18.1472 17.8 17.9873 17.8667 17.8807 18C17.774 18.1333 17.7207 18.3067 17.7473 18.4933L18.0672 20.5734C18.2005 21.1867 17.7873 21.8934 17.174 22.0934C16.6007 22.3067 15.9205 22.0134 15.6539 21.6134L13.0673 17.7733V18.2533C13.0673 19.1867 12.6673 19.5734 11.6806 19.5734H11.0273C10.0406 19.5734 9.64062 19.1867 9.64062 18.2533V11.88C9.64062 10.9467 10.0406 10.56 11.0273 10.56H11.6806C12.614 10.56 13.014 10.92 13.054 11.7733L15.014 10.2667C15.2807 10 15.8807 9.85333 16.3073 9.85333H18.7739C19.6272 9.85333 20.4807 10.4933 20.6673 11.28L22.2273 16.0267C22.4007 16.4533 22.3605 16.8933 22.1072 17.24Z" fill="#EF4444"/>
</svg>
