<svg width="48" height="48" viewBox="0 0 48 48" fill="none" xmlns="http://www.w3.org/2000/svg">
<path d="M23.9999 44.491C35.1897 44.491 44.4911 35.2097 44.4911 23.9999C44.4911 12.8102 35.1696 3.50879 23.9799 3.50879C12.77 3.50879 3.50891 12.8102 3.50891 23.9999C3.50891 35.2097 12.7901 44.491 23.9999 44.491ZM23.9999 30.8503C17.953 30.8503 13.2923 32.9999 11.2633 35.4106C8.57137 32.3971 6.94408 28.3994 6.94408 23.9999C6.94408 14.5378 14.4977 6.92399 23.9799 6.92399C33.4419 6.92399 41.0557 14.5378 41.0759 23.9999C41.0759 28.4196 39.4486 32.4173 36.7366 35.4307C34.7075 33.0199 30.0468 30.8503 23.9999 30.8503ZM23.9999 27.4352C27.8571 27.4754 30.8906 24.1807 30.8906 19.8615C30.8906 15.8035 27.837 12.4285 23.9999 12.4285C20.1428 12.4285 17.0692 15.8035 17.1094 19.8615C17.1294 24.1807 20.1227 27.395 23.9999 27.4352Z" fill="#34D399"/>
</svg>
