<svg width="32" height="32" viewBox="0 0 32 32" fill="none" xmlns="http://www.w3.org/2000/svg">
<path opacity="0.4" d="M14.3345 3.26676C15.2545 2.48009 16.761 2.48009 17.6944 3.26676L19.8012 5.08006C20.2012 5.42673 20.9477 5.70678 21.481 5.70678H23.7478C25.1612 5.70678 26.321 6.86677 26.321 8.28011V10.5467C26.321 11.0667 26.601 11.8267 26.9477 12.2267L28.7612 14.3335C29.5478 15.2535 29.5478 16.7601 28.7612 17.6935L26.9477 19.8C26.601 20.2 26.321 20.9467 26.321 21.48V23.7468C26.321 25.1601 25.1612 26.32 23.7478 26.32H21.481C20.961 26.32 20.2012 26.6001 19.8012 26.9468L17.6944 28.7601C16.7744 29.5468 15.2678 29.5468 14.3345 28.7601L12.2278 26.9468C11.8278 26.6001 11.0811 26.32 10.5478 26.32H8.24109C6.82776 26.32 5.66777 25.1601 5.66777 23.7468V21.4667C5.66777 20.9467 5.38778 20.2 5.05445 19.8L3.25444 17.6801C2.48111 16.7601 2.48111 15.2668 3.25444 14.3468L5.05445 12.2267C5.38778 11.8267 5.66777 11.0801 5.66777 10.5601V8.28011C5.66777 6.86677 6.82776 5.70678 8.24109 5.70678H10.5478C11.0678 5.70678 11.8278 5.42673 12.2278 5.08006L14.3345 3.26676Z" fill="#6C22A6"/>
<path d="M22.1072 14.76C21.8539 14.4 21.4273 14.2 20.9207 14.2H18.3205C18.1472 14.2 17.9873 14.1333 17.8807 14C17.774 13.8667 17.7207 13.6933 17.7473 13.5067L18.0672 11.4266C18.2005 10.8133 17.7873 10.1066 17.174 9.90663C16.6007 9.69329 15.9205 9.9866 15.6539 10.3866L13.0673 14.2267V13.7467C13.0673 12.8133 12.6673 12.4266 11.6806 12.4266H11.0273C10.0406 12.4266 9.64062 12.8133 9.64062 13.7467V20.12C9.64062 21.0533 10.0406 21.44 11.0273 21.44H11.6806C12.614 21.44 13.014 21.08 13.054 20.2267L15.014 21.7333C15.2807 22 15.8807 22.1467 16.3073 22.1467H18.7739C19.6272 22.1467 20.4807 21.5067 20.6673 20.72L22.2273 15.9733C22.4007 15.5467 22.3605 15.1067 22.1072 14.76Z" fill="#6C22A6"/>
</svg>
