<svg width="21" height="19" viewBox="0 0 21 19" fill="none" xmlns="http://www.w3.org/2000/svg">
<path fill-rule="evenodd" clip-rule="evenodd" d="M10.5 14C14.366 14 17.5 10.866 17.5 7C17.5 3.13401 14.366 0 10.5 0C6.63401 0 3.5 3.13401 3.5 7C3.5 10.866 6.63401 14 10.5 14ZM10.5 4C10.2159 4 10.0259 4.34084 9.6459 5.02251L9.5476 5.19887C9.4397 5.39258 9.3857 5.48944 9.3015 5.55334C9.2173 5.61725 9.1125 5.64097 8.9028 5.68841L8.7119 5.73161C7.97396 5.89857 7.60501 5.98205 7.51723 6.26432C7.42945 6.54659 7.68097 6.84072 8.18403 7.42898L8.31418 7.58117C8.45713 7.74833 8.5286 7.83191 8.5608 7.93531C8.5929 8.0387 8.5821 8.1502 8.5605 8.3733L8.5408 8.5763C8.46476 9.3612 8.42674 9.7536 8.6565 9.9281C8.8864 10.1025 9.2318 9.9435 9.9227 9.6254L10.1014 9.5431C10.2978 9.4527 10.3959 9.4075 10.5 9.4075C10.6041 9.4075 10.7022 9.4527 10.8986 9.5431L11.0773 9.6254C11.7682 9.9435 12.1136 10.1025 12.3435 9.9281C12.5733 9.7536 12.5352 9.3612 12.4592 8.5763L12.4395 8.3733C12.4179 8.1502 12.4071 8.0387 12.4392 7.93531C12.4714 7.83191 12.5429 7.74833 12.6858 7.58118L12.816 7.42898C13.319 6.84072 13.5706 6.54659 13.4828 6.26432C13.395 5.98205 13.026 5.89857 12.2881 5.73161L12.0972 5.68841C11.8875 5.64097 11.7827 5.61725 11.6985 5.55334C11.6143 5.48944 11.5603 5.39258 11.4524 5.19887L11.3541 5.02251C10.9741 4.34084 10.7841 4 10.5 4Z" fill="#D1D5DB"/>
<path d="M2.99517 10.9946L1.49206 12.551C0.951937 13.1102 0.681877 13.3898 0.588427 13.6266C0.375477 14.1662 0.557717 14.7648 1.02138 15.0486C1.22486 15.1732 1.59187 15.212 2.32589 15.2897C2.7403 15.3335 2.94755 15.3554 3.1211 15.4219C3.50966 15.5709 3.81191 15.8838 3.95575 16.2861C4.02 16.4658 4.04117 16.6804 4.0835 17.1095C4.15848 17.8695 4.19597 18.2495 4.31628 18.4602C4.59042 18.9403 5.16852 19.129 5.68967 18.9085C5.91837 18.8117 6.18843 18.5321 6.72855 17.9729L9.2106 15.4029C6.51306 14.9924 4.23225 13.314 2.99517 10.9946Z" fill="#D1D5DB"/>
<path d="M11.7894 15.4029L14.2715 17.9729C14.8116 18.5321 15.0816 18.8117 15.3103 18.9085C15.8315 19.129 16.4096 18.9403 16.6837 18.4602C16.804 18.2495 16.8415 17.8695 16.9165 17.1095C16.9588 16.6804 16.98 16.4658 17.0442 16.2861C17.1881 15.8838 17.4903 15.5709 17.8789 15.4219C18.0525 15.3554 18.2597 15.3335 18.6741 15.2897C19.4081 15.212 19.7751 15.1732 19.9786 15.0486C20.4423 14.7648 20.6245 14.1662 20.4116 13.6266C20.3181 13.3898 20.0481 13.1102 19.5079 12.551L18.0048 10.9946C16.7677 13.314 14.4869 14.9924 11.7894 15.4029Z" fill="#D1D5DB"/>
</svg>
