<svg width="17" height="20" viewBox="0 0 17 20" fill="none" xmlns="http://www.w3.org/2000/svg">
<path fill-rule="evenodd" clip-rule="evenodd" d="M9.936 3.78311C9.0407 3.29495 7.9588 3.29495 7.0636 3.78311L2.26937 6.39728C1.30539 6.92292 0.705566 7.93319 0.705566 9.0312V13.9688C0.705566 15.0668 1.30539 16.0771 2.26937 16.6027L7.0636 19.2169C7.9588 19.705 9.0407 19.705 9.936 19.2169L14.7302 16.6027C15.6942 16.0771 16.294 15.0668 16.294 13.9688V9.0312C16.294 7.93319 15.6942 6.92292 14.7302 6.39728L9.936 3.78311ZM8.5 8.5C8.2159 8.5 8.0259 8.8408 7.6459 9.5225L7.5476 9.6989C7.4397 9.8926 7.3857 9.9894 7.3015 10.0533C7.2173 10.1172 7.1125 10.141 6.9028 10.1884L6.7119 10.2316C5.97396 10.3986 5.60501 10.482 5.51723 10.7643C5.42945 11.0466 5.68097 11.3407 6.18403 11.929L6.31418 12.0812C6.45713 12.2483 6.5286 12.3319 6.5608 12.4353C6.5929 12.5387 6.5821 12.6502 6.5605 12.8733L6.5408 13.0763C6.46476 13.8612 6.42674 14.2536 6.6565 14.4281C6.8864 14.6025 7.2318 14.4435 7.9227 14.1254L8.1014 14.0431C8.2978 13.9527 8.3959 13.9075 8.5 13.9075C8.6041 13.9075 8.7022 13.9527 8.8986 14.0431L9.0773 14.1254C9.7682 14.4435 10.1136 14.6025 10.3435 14.4281C10.5733 14.2536 10.5352 13.8612 10.4592 13.0763L10.4395 12.8733C10.4179 12.6502 10.4071 12.5387 10.4392 12.4353C10.4714 12.3319 10.5429 12.2483 10.6858 12.0812L10.816 11.929C11.319 11.3407 11.5706 11.0466 11.4828 10.7643C11.395 10.482 11.026 10.3986 10.2881 10.2316L10.0972 10.1884C9.8875 10.141 9.7827 10.1172 9.6985 10.0533C9.6143 9.9894 9.5603 9.8926 9.4524 9.6989L9.3541 9.5225C8.9741 8.8408 8.7841 8.5 8.5 8.5Z" fill="#D1D5DB"/>
<path d="M7.5 0H9.5C11.3856 0 12.3284 -5.96046e-08 12.9142 0.58579C13.5 1.17157 13.5 2.11438 13.5 4V4.01797L10.6541 2.46616C9.3112 1.73394 7.6884 1.73393 6.34551 2.46616L3.5 4.01775V4C3.5 2.11438 3.5 1.17157 4.08579 0.58579C4.67157 -5.96046e-08 5.61438 0 7.5 0Z" fill="#D1D5DB"/>
</svg>
