<svg width="17" height="20" viewBox="0 0 17 20" fill="none" xmlns="http://www.w3.org/2000/svg">
<path fill-rule="evenodd" clip-rule="evenodd" d="M8.5 20C12.9183 20 16.5 16.4183 16.5 12C16.5 7.58172 12.9183 4 8.5 4C4.08172 4 0.5 7.58172 0.5 12C0.5 16.4183 4.08172 20 8.5 20ZM8.5 9C8.2159 9 8.0259 9.3408 7.6459 10.0225L7.5476 10.1989C7.4397 10.3926 7.3857 10.4894 7.3015 10.5533C7.2173 10.6172 7.1125 10.641 6.9028 10.6884L6.7119 10.7316C5.97396 10.8986 5.60501 10.982 5.51723 11.2643C5.42945 11.5466 5.68097 11.8407 6.18403 12.429L6.31418 12.5812C6.45713 12.7483 6.5286 12.8319 6.5608 12.9353C6.5929 13.0387 6.5821 13.1502 6.5605 13.3733L6.5408 13.5763C6.46476 14.3612 6.42674 14.7536 6.6565 14.9281C6.8864 15.1025 7.2318 14.9435 7.9227 14.6254L8.1014 14.5431C8.2978 14.4527 8.3959 14.4075 8.5 14.4075C8.6041 14.4075 8.7022 14.4527 8.8986 14.5431L9.0773 14.6254C9.7682 14.9435 10.1136 15.1025 10.3435 14.9281C10.5733 14.7536 10.5352 14.3612 10.4592 13.5763L10.4395 13.3733C10.4179 13.1502 10.4071 13.0387 10.4392 12.9353C10.4714 12.8319 10.5429 12.7483 10.6858 12.5812L10.816 12.429C11.319 11.8407 11.5706 11.5466 11.4828 11.2643C11.395 10.982 11.026 10.8986 10.2881 10.7316L10.0972 10.6884C9.8875 10.641 9.7827 10.6172 9.6985 10.5533C9.6143 10.4894 9.5603 10.3926 9.4524 10.1989L9.3541 10.0225C8.9741 9.3408 8.7841 9 8.5 9Z" fill="#D1D5DB"/>
<path d="M7.5 0H9.5C11.3856 0 12.3284 -5.96046e-08 12.9142 0.58579C13.4917 1.1633 13.4999 2.08784 13.5 3.92072C12.0477 3.02003 10.3346 2.5 8.5 2.5C6.6654 2.5 4.9523 3.02003 3.5 3.92072C3.50012 2.08784 3.50827 1.1633 4.08578 0.58579C4.67157 -5.96046e-08 5.61438 0 7.5 0Z" fill="#D1D5DB"/>
</svg>
