<svg width="130" height="36" viewBox="0 0 130 36" fill="none" xmlns="http://www.w3.org/2000/svg">
<path opacity="0.1" d="M18.3252 13.7304L18.0022 13.5457C17.3144 13.1527 16.4586 13.6492 16.4585 14.4414L16.4581 21.5525C16.458 22.3447 17.3137 22.8413 18.0016 22.4484L18.3247 22.2637L23.9249 19.0641C24.7503 18.5925 24.7504 17.4024 23.925 16.9307L18.3252 13.7304Z" fill="#34D399"/>
<path d="M18.3252 13.7304L18.0022 13.5457C17.3144 13.1527 16.4586 13.6492 16.4585 14.4414L16.4581 21.5525C16.458 22.3447 17.3137 22.8413 18.0016 22.4484L18.3247 22.2637L23.9249 19.0641C24.7503 18.5925 24.7504 17.4024 23.925 16.9307L18.3252 13.7304Z" stroke="#34D399" stroke-width="2.66667" stroke-linecap="round" stroke-linejoin="round"/>
<path d="M44.2316 23.9987L42.1196 23.9986L42.1198 20.6386C42.1198 20.3826 42.0505 20.1746 41.9119 20.0145C41.7839 19.8545 41.5652 19.7745 41.2559 19.7745L38.8239 19.7743L38.8236 23.9983L36.7116 23.9982L36.7123 12.7982L41.0003 12.7985C41.5763 12.7985 42.083 12.8786 42.5203 13.0386C42.9576 13.1986 43.3203 13.4226 43.6083 13.7107C43.9069 13.988 44.1309 14.3133 44.2802 14.6867C44.4402 15.06 44.5201 15.46 44.5201 15.8867L44.5201 16.2707C44.5201 16.7294 44.3974 17.1614 44.152 17.5667C43.9066 17.9613 43.528 18.2653 43.0159 18.4786L43.0159 18.7666C43.3893 18.8093 43.6826 18.9533 43.8959 19.1987C44.1199 19.444 44.2319 19.7534 44.2318 20.1267L44.2316 23.9987ZM38.824 17.7583L40.84 17.7585C41.352 17.7585 41.7413 17.6412 42.008 17.4065C42.2747 17.1612 42.4081 16.8199 42.4081 16.3826L42.4081 16.1906C42.4081 15.8172 42.2748 15.4972 42.0082 15.2305C41.7415 14.9532 41.3522 14.8145 40.8402 14.8145L38.8242 14.8143L38.824 17.7583Z" fill="white"/>
<path d="M44.2316 23.9987L42.1196 23.9986L42.1198 20.6386C42.1198 20.3826 42.0505 20.1746 41.9119 20.0145C41.7839 19.8545 41.5652 19.7745 41.2559 19.7745L38.8239 19.7743L38.8236 23.9983L36.7116 23.9982L36.7123 12.7982L41.0003 12.7985C41.5763 12.7985 42.083 12.8786 42.5203 13.0386C42.9576 13.1986 43.3203 13.4226 43.6083 13.7107C43.9069 13.988 44.1309 14.3133 44.2802 14.6867C44.4402 15.06 44.5201 15.46 44.5201 15.8867L44.5201 16.2707C44.5201 16.7294 44.3974 17.1614 44.152 17.5667C43.9066 17.9613 43.528 18.2653 43.0159 18.4786L43.0159 18.7666C43.3893 18.8093 43.6826 18.9533 43.8959 19.1987C44.1199 19.444 44.2319 19.7534 44.2318 20.1267L44.2316 23.9987ZM38.824 17.7583L40.84 17.7585C41.352 17.7585 41.7413 17.6412 42.008 17.4065C42.2747 17.1612 42.4081 16.8199 42.4081 16.3826L42.4081 16.1906C42.4081 15.8172 42.2748 15.4972 42.0082 15.2305C41.7415 14.9532 41.3522 14.8145 40.8402 14.8145L38.8242 14.8143L38.824 17.7583Z" fill="#34D399"/>
<path d="M48.3647 20.687C48.3753 20.9216 48.4287 21.1403 48.5246 21.343C48.6313 21.535 48.77 21.7056 48.9406 21.855C49.1219 21.9937 49.3246 22.1057 49.5486 22.191C49.7833 22.2657 50.0286 22.3031 50.2846 22.3031C50.7859 22.3031 51.1699 22.2178 51.4366 22.0471C51.7033 21.8658 51.8953 21.6525 52.0126 21.4072L53.7406 22.3673C53.6446 22.57 53.5112 22.7833 53.3405 23.0073C53.1699 23.2206 52.9458 23.4179 52.6685 23.5992C52.4018 23.7805 52.0711 23.9299 51.6765 24.0472C51.2925 24.1645 50.8391 24.2231 50.3165 24.2231C49.7191 24.223 49.1751 24.127 48.6845 23.935C48.1938 23.7429 47.7672 23.4656 47.4045 23.1029C47.0526 22.7402 46.7752 22.2975 46.5726 21.7748C46.3806 21.2522 46.2847 20.6602 46.2847 19.9988L46.2847 19.9028C46.2848 19.2948 46.3861 18.7402 46.5888 18.2388C46.8022 17.7375 47.0902 17.3109 47.4529 16.9589C47.8156 16.6069 48.237 16.3349 48.717 16.143C49.2077 15.9403 49.7303 15.839 50.285 15.8391C50.9677 15.8391 51.5543 15.9618 52.045 16.2072C52.5356 16.4419 52.9409 16.7459 53.2609 17.1193C53.5809 17.4819 53.8155 17.8873 53.9648 18.3353C54.1141 18.7727 54.1888 19.1993 54.1888 19.6153L54.1887 20.6873L48.3647 20.687ZM50.2689 17.6631C49.7569 17.663 49.3409 17.7963 49.0209 18.063C48.7008 18.319 48.4928 18.6176 48.3968 18.959L52.1408 18.9592C52.0768 18.5859 51.8742 18.2765 51.5329 18.0312C51.2022 17.7858 50.7809 17.6631 50.2689 17.6631ZM58.1616 20.6876C58.1722 20.9222 58.2255 21.1409 58.3215 21.3436C58.4282 21.5356 58.5668 21.7063 58.7375 21.8556C58.9188 21.9943 59.1215 22.1063 59.3455 22.1916C59.5801 22.2663 59.8255 22.3037 60.0815 22.3037C60.5828 22.3037 60.9668 22.2184 61.2335 22.0478C61.5002 21.8665 61.6922 21.6531 61.8095 21.4078L63.5375 22.3679C63.4414 22.5706 63.3081 22.7839 63.1374 23.0079C62.9667 23.2212 62.7427 23.4185 62.4654 23.5998C62.1987 23.7812 61.868 23.9305 61.4733 24.0478C61.0893 24.1651 60.636 24.2237 60.1133 24.2237C59.516 24.2237 58.972 24.1276 58.4814 23.9356C57.9907 23.7436 57.564 23.4662 57.2014 23.1035C56.8494 22.7408 56.5721 22.2981 56.3695 21.7755C56.1775 21.2528 56.0816 20.6608 56.0816 19.9994L56.0816 19.9034C56.0816 19.2954 56.183 18.7408 56.3857 18.2395C56.5991 17.7381 56.8871 17.3115 57.2498 16.9595C57.6125 16.6075 58.0338 16.3356 58.5138 16.1436C59.0045 15.941 59.5272 15.8397 60.0819 15.8397C60.7645 15.8397 61.3512 15.9624 61.8418 16.2078C62.3325 16.4425 62.7378 16.7465 63.0578 17.1199C63.3778 17.4826 63.6124 17.8879 63.7617 18.3359C63.911 18.7733 63.9857 19.1999 63.9856 19.6159L63.9856 20.6879L58.1616 20.6876ZM60.0658 17.6637C59.5538 17.6637 59.1377 17.797 58.8177 18.0636C58.4977 18.3196 58.2897 18.6182 58.1937 18.9596L61.9377 18.9598C61.8737 18.5865 61.671 18.2771 61.3297 18.0318C60.9991 17.7864 60.5778 17.6637 60.0658 17.6637ZM66.1343 22.0801L68.9183 22.0803L68.9188 14.7203L66.2308 14.7201L66.2309 12.8001L70.9349 12.8004L70.9343 22.0804L73.5263 22.0805L73.5262 24.0005L66.1342 24.0001L66.1343 22.0801ZM90.912 22.8497C90.6987 23.351 90.4 23.7083 90.016 23.9216C89.632 24.1242 89.184 24.2255 88.672 24.2255C88.192 24.2255 87.7386 24.1348 87.312 23.9534C86.896 23.7721 86.528 23.5054 86.208 23.1534C85.8881 22.8013 85.6321 22.3747 85.4401 21.8733C85.2588 21.372 85.1682 20.8013 85.1682 20.1613L85.1682 19.9053C85.1683 19.276 85.259 18.7106 85.4403 18.2093C85.6217 17.708 85.8671 17.2813 86.1764 16.9294C86.4858 16.5774 86.8431 16.3107 87.2485 16.1294C87.6645 15.9374 88.1072 15.8415 88.5765 15.8415C89.1418 15.8415 89.5952 15.9376 89.9365 16.1296C90.2885 16.3216 90.5658 16.6203 90.7684 17.0256L91.0564 17.0257L91.0565 16.0657L93.0725 16.0658L93.0721 21.6018C93.0721 21.9218 93.2161 22.0818 93.5041 22.0818L93.8081 22.0818L93.808 24.0018L92.432 24.0017C92.0693 24.0017 91.7706 23.895 91.536 23.6817C91.312 23.4683 91.2 23.191 91.2 22.8497L90.912 22.8497ZM89.1201 22.3055C89.7067 22.3056 90.1761 22.1136 90.5281 21.7296C90.8801 21.335 91.0562 20.8017 91.0562 20.1297L91.0562 19.9377C91.0563 19.2657 90.8803 18.7377 90.5283 18.3536C90.1764 17.9589 89.707 17.7616 89.1204 17.7615C88.5337 17.7615 88.0644 17.9588 87.7123 18.3534C87.3603 18.7374 87.1843 19.2654 87.1842 19.9374L87.1842 20.1294C87.1842 20.8014 87.3601 21.3348 87.7121 21.7294C88.0641 22.1135 88.5334 22.3055 89.1201 22.3055ZM100.949 16.0663L102.965 16.0664L102.965 24.0024L100.949 24.0023L100.949 22.8503L100.661 22.8503C100.309 23.7676 99.5515 24.2262 98.3888 24.2261C97.9942 24.2261 97.6262 24.1621 97.2848 24.0341C96.9435 23.906 96.6449 23.7087 96.3889 23.442C96.1329 23.1753 95.9303 22.8446 95.7809 22.45C95.6423 22.0446 95.573 21.5699 95.573 21.0259L95.5734 16.0659L97.5894 16.0661L97.5891 20.6101C97.589 21.1754 97.7223 21.6181 97.989 21.9381C98.2556 22.2475 98.6556 22.4021 99.189 22.4022C99.797 22.4022 100.24 22.2102 100.517 21.8263C100.805 21.4316 100.949 20.8983 100.949 20.2263L100.949 16.0663ZM105.322 22.0826L108.106 22.0827L108.106 14.7227L105.418 14.7226L105.418 12.8026L110.122 12.8029L110.122 22.0829L112.714 22.083L112.714 24.003L105.322 24.0026L105.322 22.0826ZM114.943 16.0672L117.295 16.0673L117.295 12.8033L119.311 12.8035L119.311 16.0675L122.175 16.0676L122.175 17.9876L119.311 17.9875L119.311 21.6035C119.311 21.9235 119.455 22.0835 119.743 22.0835L121.887 22.0836L121.887 24.0036L118.527 24.0034C118.164 24.0034 117.865 23.886 117.631 23.6513C117.407 23.4167 117.295 23.118 117.295 22.7553L117.295 17.9873L114.943 17.9872L114.943 16.0672Z" fill="white"/>
<path d="M75.1158 12.8006L77.2918 12.8008L79.4832 22.9449L79.7712 22.9449L81.9638 12.8011L84.1398 12.8012L81.6111 24.0011L77.6431 24.0008L75.1158 12.8006Z" fill="white"/>
<path d="M75.1158 12.8006L77.2918 12.8008L79.4832 22.9449L79.7712 22.9449L81.9638 12.8011L84.1398 12.8012L81.6111 24.0011L77.6431 24.0008L75.1158 12.8006Z" fill="#6C22A6"/>
</svg>
